%TF.GenerationSoftware,KiCad,Pcbnew,(6.0.9)*%
%TF.CreationDate,2023-01-06T09:26:06+01:00*%
%TF.ProjectId,WS2812B_Single_Dot,57533238-3132-4425-9f53-696e676c655f,rev?*%
%TF.SameCoordinates,Original*%
%TF.FileFunction,Legend,Bot*%
%TF.FilePolarity,Positive*%
%FSLAX46Y46*%
G04 Gerber Fmt 4.6, Leading zero omitted, Abs format (unit mm)*
G04 Created by KiCad (PCBNEW (6.0.9)) date 2023-01-06 09:26:06*
%MOMM*%
%LPD*%
G01*
G04 APERTURE LIST*
%ADD10C,0.150000*%
%ADD11C,5.600000*%
%ADD12R,1.700000X1.700000*%
%ADD13O,1.700000X1.700000*%
G04 APERTURE END LIST*
D10*
X164631285Y-100610142D02*
X164631285Y-99710142D01*
X164417000Y-99710142D01*
X164288428Y-99753000D01*
X164202714Y-99838714D01*
X164159857Y-99924428D01*
X164117000Y-100095857D01*
X164117000Y-100224428D01*
X164159857Y-100395857D01*
X164202714Y-100481571D01*
X164288428Y-100567285D01*
X164417000Y-100610142D01*
X164631285Y-100610142D01*
X163559857Y-99710142D02*
X163388428Y-99710142D01*
X163302714Y-99753000D01*
X163217000Y-99838714D01*
X163174142Y-100010142D01*
X163174142Y-100310142D01*
X163217000Y-100481571D01*
X163302714Y-100567285D01*
X163388428Y-100610142D01*
X163559857Y-100610142D01*
X163645571Y-100567285D01*
X163731285Y-100481571D01*
X163774142Y-100310142D01*
X163774142Y-100010142D01*
X163731285Y-99838714D01*
X163645571Y-99753000D01*
X163559857Y-99710142D01*
X162788428Y-99710142D02*
X162788428Y-100438714D01*
X162745571Y-100524428D01*
X162702714Y-100567285D01*
X162617000Y-100610142D01*
X162445571Y-100610142D01*
X162359857Y-100567285D01*
X162317000Y-100524428D01*
X162274142Y-100438714D01*
X162274142Y-99710142D01*
X161974142Y-99710142D02*
X161459857Y-99710142D01*
X161717000Y-100610142D02*
X161717000Y-99710142D01*
X161159857Y-100267285D02*
X160474142Y-100267285D01*
X160045571Y-100610142D02*
X160045571Y-99710142D01*
X159831285Y-99710142D01*
X159702714Y-99753000D01*
X159617000Y-99838714D01*
X159574142Y-99924428D01*
X159531285Y-100095857D01*
X159531285Y-100224428D01*
X159574142Y-100395857D01*
X159617000Y-100481571D01*
X159702714Y-100567285D01*
X159831285Y-100610142D01*
X160045571Y-100610142D01*
X159145571Y-100610142D02*
X159145571Y-99710142D01*
X158717000Y-100610142D02*
X158717000Y-99710142D01*
X158202714Y-100610142D01*
X158202714Y-99710142D01*
X162702714Y-102814428D02*
X161940809Y-102814428D01*
X162321761Y-103195380D02*
X162321761Y-102433476D01*
X160988428Y-102195380D02*
X161464619Y-102195380D01*
X161512238Y-102671571D01*
X161464619Y-102623952D01*
X161369380Y-102576333D01*
X161131285Y-102576333D01*
X161036047Y-102623952D01*
X160988428Y-102671571D01*
X160940809Y-102766809D01*
X160940809Y-103004904D01*
X160988428Y-103100142D01*
X161036047Y-103147761D01*
X161131285Y-103195380D01*
X161369380Y-103195380D01*
X161464619Y-103147761D01*
X161512238Y-103100142D01*
X160655095Y-102195380D02*
X160321761Y-103195380D01*
X159988428Y-102195380D01*
X162178904Y-97163000D02*
X162274142Y-97115380D01*
X162417000Y-97115380D01*
X162559857Y-97163000D01*
X162655095Y-97258238D01*
X162702714Y-97353476D01*
X162750333Y-97543952D01*
X162750333Y-97686809D01*
X162702714Y-97877285D01*
X162655095Y-97972523D01*
X162559857Y-98067761D01*
X162417000Y-98115380D01*
X162321761Y-98115380D01*
X162178904Y-98067761D01*
X162131285Y-98020142D01*
X162131285Y-97686809D01*
X162321761Y-97686809D01*
X161702714Y-98115380D02*
X161702714Y-97115380D01*
X161131285Y-98115380D01*
X161131285Y-97115380D01*
X160655095Y-98115380D02*
X160655095Y-97115380D01*
X160417000Y-97115380D01*
X160274142Y-97163000D01*
X160178904Y-97258238D01*
X160131285Y-97353476D01*
X160083666Y-97543952D01*
X160083666Y-97686809D01*
X160131285Y-97877285D01*
X160178904Y-97972523D01*
X160274142Y-98067761D01*
X160417000Y-98115380D01*
X160655095Y-98115380D01*
%LPC*%
D11*
%TO.C,REF\u002A\u002A*%
X161400000Y-92200000D03*
%TD*%
D12*
%TO.C,J1*%
X156800000Y-102740000D03*
D13*
X156800000Y-100200000D03*
X156800000Y-97660000D03*
%TD*%
D12*
%TO.C,J2*%
X166000000Y-97660000D03*
D13*
X166000000Y-100200000D03*
X166000000Y-102740000D03*
%TD*%
D11*
%TO.C,REF\u002A\u002A*%
X161400000Y-108200000D03*
%TD*%
M02*
