%TF.GenerationSoftware,KiCad,Pcbnew,(6.0.9)*%
%TF.CreationDate,2023-01-06T09:26:06+01:00*%
%TF.ProjectId,WS2812B_Single_Dot,57533238-3132-4425-9f53-696e676c655f,rev?*%
%TF.SameCoordinates,Original*%
%TF.FileFunction,Legend,Top*%
%TF.FilePolarity,Positive*%
%FSLAX46Y46*%
G04 Gerber Fmt 4.6, Leading zero omitted, Abs format (unit mm)*
G04 Created by KiCad (PCBNEW (6.0.9)) date 2023-01-06 09:26:06*
%MOMM*%
%LPD*%
G01*
G04 APERTURE LIST*
%ADD10C,0.120000*%
%ADD11R,0.900000X1.500000*%
%ADD12C,5.600000*%
%ADD13R,1.700000X1.700000*%
%ADD14O,1.700000X1.700000*%
G04 APERTURE END LIST*
D10*
%TO.C,D1*%
X158650000Y-103850000D02*
X158650000Y-96550000D01*
X164150000Y-103850000D02*
X164150000Y-96550000D01*
X164150000Y-96550000D02*
X163000000Y-96550000D01*
%TO.C,J1*%
X152700000Y-102820000D02*
X146700000Y-102820000D01*
X152700000Y-96330000D02*
X152700000Y-104070000D01*
X152700000Y-98040000D02*
X146700000Y-98040000D01*
X155757071Y-98040000D02*
X155360000Y-98040000D01*
X155360000Y-104070000D02*
X155360000Y-96330000D01*
X152700000Y-102940000D02*
X146700000Y-102940000D01*
X146700000Y-102360000D02*
X152700000Y-102360000D01*
X155690000Y-102360000D02*
X155360000Y-102360000D01*
X155690000Y-103120000D02*
X155360000Y-103120000D01*
X155757071Y-97280000D02*
X155360000Y-97280000D01*
X152700000Y-103120000D02*
X146700000Y-103120000D01*
X152700000Y-102580000D02*
X146700000Y-102580000D01*
X158070000Y-104010000D02*
X156800000Y-104010000D01*
X158070000Y-102740000D02*
X158070000Y-104010000D01*
X155360000Y-98930000D02*
X152700000Y-98930000D01*
X152700000Y-103060000D02*
X146700000Y-103060000D01*
X155757071Y-99820000D02*
X155360000Y-99820000D01*
X146700000Y-99820000D02*
X152700000Y-99820000D01*
X155757071Y-100580000D02*
X155360000Y-100580000D01*
X152700000Y-104070000D02*
X155360000Y-104070000D01*
X152700000Y-102700000D02*
X146700000Y-102700000D01*
X155360000Y-101470000D02*
X152700000Y-101470000D01*
X146700000Y-98040000D02*
X146700000Y-97280000D01*
X146700000Y-97280000D02*
X152700000Y-97280000D01*
X146700000Y-103120000D02*
X146700000Y-102360000D01*
X152700000Y-102460000D02*
X146700000Y-102460000D01*
X152700000Y-100580000D02*
X146700000Y-100580000D01*
X146700000Y-100580000D02*
X146700000Y-99820000D01*
X155360000Y-96330000D02*
X152700000Y-96330000D01*
%TO.C,J2*%
X176100000Y-103120000D02*
X170100000Y-103120000D01*
X176100000Y-99820000D02*
X176100000Y-100580000D01*
X170100000Y-97940000D02*
X176100000Y-97940000D01*
X167110000Y-97280000D02*
X167440000Y-97280000D01*
X167440000Y-96330000D02*
X167440000Y-104070000D01*
X167110000Y-98040000D02*
X167440000Y-98040000D01*
X167042929Y-103120000D02*
X167440000Y-103120000D01*
X170100000Y-99820000D02*
X176100000Y-99820000D01*
X176100000Y-100580000D02*
X170100000Y-100580000D01*
X167440000Y-104070000D02*
X170100000Y-104070000D01*
X170100000Y-97820000D02*
X176100000Y-97820000D01*
X170100000Y-96330000D02*
X167440000Y-96330000D01*
X176100000Y-97280000D02*
X176100000Y-98040000D01*
X170100000Y-97280000D02*
X176100000Y-97280000D01*
X170100000Y-97700000D02*
X176100000Y-97700000D01*
X170100000Y-97340000D02*
X176100000Y-97340000D01*
X164730000Y-97660000D02*
X164730000Y-96390000D01*
X170100000Y-102360000D02*
X176100000Y-102360000D01*
X170100000Y-97460000D02*
X176100000Y-97460000D01*
X164730000Y-96390000D02*
X166000000Y-96390000D01*
X170100000Y-104070000D02*
X170100000Y-96330000D01*
X167042929Y-100580000D02*
X167440000Y-100580000D01*
X167042929Y-102360000D02*
X167440000Y-102360000D01*
X167440000Y-101470000D02*
X170100000Y-101470000D01*
X170100000Y-97580000D02*
X176100000Y-97580000D01*
X176100000Y-102360000D02*
X176100000Y-103120000D01*
X176100000Y-98040000D02*
X170100000Y-98040000D01*
X167042929Y-99820000D02*
X167440000Y-99820000D01*
X167440000Y-98930000D02*
X170100000Y-98930000D01*
%TD*%
%LPC*%
D11*
%TO.C,D1*%
X159750000Y-102650000D03*
X163050000Y-102650000D03*
X163050000Y-97750000D03*
X159750000Y-97750000D03*
%TD*%
D12*
%TO.C,REF\u002A\u002A*%
X161400000Y-92200000D03*
%TD*%
D13*
%TO.C,J1*%
X156800000Y-102740000D03*
D14*
X156800000Y-100200000D03*
X156800000Y-97660000D03*
%TD*%
D13*
%TO.C,J2*%
X166000000Y-97660000D03*
D14*
X166000000Y-100200000D03*
X166000000Y-102740000D03*
%TD*%
D12*
%TO.C,REF\u002A\u002A*%
X161400000Y-108200000D03*
%TD*%
M02*
